<?xml version="1.0" standalone="no"?>
<!DOCTYPE svg PUBLIC "-//W3C//DTD SVG 1.1//EN" "http://www.w3.org/Graphics/SVG/1.1/DTD/svg11.dtd">
<svg xmlns="http://www.w3.org/2000/svg">
<metadata>Copyright (C) 2015 by original authors @ fontello.com</metadata>
<defs>
<font id="hotel" horiz-adv-x="1000" >
<font-face font-family="hotel" font-weight="400" font-stretch="normal" units-per-em="1000" ascent="850" descent="-150" />
<missing-glyph horiz-adv-x="1000" />
<glyph glyph-name="01" unicode="&#xe800;" d="m735 386l-106 41c9 16 13 35 13 58 0 79-64 143-142 143-79 0-143-64-143-143 0-23 5-42 13-59l-106-40-84-315 173 82 147-70 147 70 173-82-85 315z m-235 148c27 0 48-22 48-49 0-26-21-48-48-48-27 0-49 22-49 48 0 27 22 49 49 49z m-208-173l97 37c5-5 9-10 14-16l97-96 96 96c5 6 10 11 14 16l97-37 62-229-105 49-46 156 14-155-116-55-16 126-17-125-115 54 14 155-47-156-104-49 61 229z" horiz-adv-x="1000" />
<glyph glyph-name="02" unicode="&#xe801;" d="m690 465c12 41 1 86-30 116-44 45-121 44-165 0-8-8-15-17-20-26-34-18-73-56-92-80-11-15-20-31-27-47-47-9-87-44-100-92l-52-197 248-66 53 196c6 23 5 46-1 68 12 9 24 18 35 30 6 5 11 11 16 17 18-3 37-3 55 2l41-41h18v-27h27v-18l21-21h80v79l-107 107z m-218-187l-44-164-183 49 44 164c13 50 66 81 116 67 24-6 44-21 57-43-15-7-28-11-40-12-4 8-11 15-20 17-17 5-34-5-39-22-4-17 6-35 23-39 12-4 25 1 33 11 17 0 36 5 55 14 2-14 2-28-2-42z m44 112c-9-8-17-15-26-22-17 29-44 50-76 59-7 1-14 2-21 2 5 9 10 18 17 26 12 16 32 36 51 51-2-33 9-66 34-90 7-8 16-15 26-20-2-2-3-4-5-6z m248-78h-33l-2 2v37h-27v27h-37l-46 47-10-4c-10-4-21-6-31-5 19 33 26 67 20 94 9 12 9 29-2 40-12 12-31 12-43 0-12-12-12-32 0-44 4-4 8-6 13-7 3-20-4-47-23-76-9 4-18 9-25 16-24 24-30 60-19 90 0 0 1 0 1 0l0 0c4 11 10 20 18 29 32 31 87 31 119 0 23-24 31-60 18-91l-4-10 113-112v-33z" horiz-adv-x="1000" />
<glyph glyph-name="03" unicode="&#xe802;" d="m744 156h-33v2c0 41-16 78-43 105 13 7 22 17 21 30-17-5-28-1-35 6 10 3 17 14 16 25-24 0-37 8-43 20 4 8 7 16 10 24 12 7 21 19 21 34 0 4-1 8-2 11 5 14 8 28 8 45 0 91-74 165-164 165-91 0-165-74-165-165 0-17 4-31 9-45-2-3-2-7-2-11 0-15 8-27 20-34 7-20 17-39 30-57 3-3 5-5 8-8-65-17-112-76-112-145v-2h-33v-33h14v-46h462v46h13v33z m-245 0l-57 106c19-12 38-18 58-18 19 0 38 6 57 18l-56-106h-2z m179 2v-2h-163l41 45h74l-27 52c8-2 18-2 27-1 29-21 48-56 48-94z m-293 274c0 2 1 3 1 5 23 52 68 77 114 77 11-73 82-50 113-88-1-35-12-67-33-95-54-72-107-72-161 0-22 29-34 64-34 101z m-63-274c0 53 35 97 84 112l-37-69h75l40-45h-162v2z m128 222c12 0 21 9 21 21s-9 21-21 21c-12 0-21-9-21-21s9-21 21-21z m100 0c11 0 21 9 21 21s-10 21-21 21c-12 0-22-9-22-21s10-21 22-21z" horiz-adv-x="1000" />
<glyph glyph-name="04" unicode="&#xe803;" d="m671 268c16 8 27 19 26 34-17-5-28-2-35 5 10 4 17 14 16 25-26-3-37 11-42 30 0 1 1 2 1 3 0 0 0 0 0 0 13 6 21 19 21 34 0 10-4 19-11 26 0 1 1 2 1 4 0 20-2 38-6 54-4 18-10 34-17 48-13 25-31 43-52 56-22 14-48 20-73 20-26 0-52-7-74-21-21-13-39-32-52-58-7-14-13-29-16-46-4-17-5-34-5-53 0-2 0-3 0-4-7-7-11-16-11-26 0-15 9-28 21-34 0 0 0 0 0 0 0-1 1-2 1-3-5-19-16-33-42-30-1-11 6-21 17-25-8-7-19-10-36-5-1-15 10-26 26-34-25-27-40-62-40-102v-74h33v74c0 30 12 58 30 79v-153h23v171c7 6 16 10 25 13v-97h200v97c9-3 18-7 26-13v-171h22v153c19-21 30-49 30-79v-74h34v74c0 40-16 75-41 102z m-251 59c-11 15-20 31-26 48-5 17-8 35-8 54 0 4 0 8 0 12h38c-1 26 7 59 50 76-26-17-33-47-30-76h33c-6 11-9 26 1 44-6-19 13-38 32-44h104c0-4 0-8 0-12 0-19-3-37-8-54-6-17-15-33-25-48-12-15-24-28-36-36-15-12-30-17-45-17-15 0-30 5-45 17-12 8-24 21-35 36z m70 253c3 2 6 3 10 3 4 0 7-1 10-3 1 0 2-1 3-1 2-2 4-3 5-5 3-4 5-9 5-14v0c3 7 10 11 17 11 3 0 5 0 8-1 0-1 1-1 2-1 1-1 2-2 3-3 1-1 2-1 2-2 1-1 2-2 3-4 0 0 0-1 1-2 0-2 1-4 1-6 0-2 0-3-1-5 3 2 6 3 9 3 7 0 13-6 13-14 0-4-2-8-5-10-24 6-50 9-76 9-26 0-52-3-76-9-3 2-5 6-5 10 0 8 6 14 13 14 4 0 6-1 9-3-1 2-1 3-1 5 0 2 1 4 1 6 1 1 1 2 2 2 0 2 1 3 2 4 1 1 1 1 2 2 1 1 2 2 4 3 0 0 1 1 2 1 2 1 4 1 7 1 8 0 14-4 17-11v0c0 5 2 10 5 14 2 2 3 3 5 5 1 0 2 1 3 1z m-68-378v73c5-4 9-8 13-11 21-16 43-24 65-24 22 0 44 8 65 24 4 3 9 8 13 11v-73h-156z m49 195c0 12-9 22-21 22-12 0-21-10-21-22 0-11 9-21 21-21 12 0 21 10 21 21z m79-21c12 0 21 10 21 21 0 12-9 22-21 22-12 0-21-10-21-22 0-11 9-21 21-21z" horiz-adv-x="1000" />
<glyph glyph-name="05" unicode="&#xe804;" d="m795 308c0 22-14 40-34 46v145 12l-12 4c-39 12-80 22-122 28-42 6-84 10-127 10-42 0-85-4-126-10-42-6-83-16-123-28l-11-4v-12-145c-20-6-35-24-35-46v-138h57v-24h476v24h57v138z m-401 105c47 0 88-14 106-35 19 21 59 35 106 35 62 0 112-25 116-56h-444c5 31 55 56 116 56z m368-210h-523v105c0 9 7 16 15 16h492c9 0 16-7 16-16v-105z" horiz-adv-x="1000" />
<glyph glyph-name="06" unicode="&#xe805;" d="m719 309c0 22-14 40-34 46v145 10l-9 4c-47 26-112 38-176 38-65 0-129-12-177-38l-8-4v-10-145c-20-6-35-24-35-46v-138h57v-24h325v24h57v138z m-219 105c73 0 132-25 137-56h-274c5 31 64 56 137 56z m186-210h-372v105c0 9 7 16 15 16h341c9 0 16-7 16-16v-105z" horiz-adv-x="1000" />
<glyph glyph-name="07" unicode="&#xe806;" d="m600 270c3 3 5 5 7 8 14 18 24 37 31 58 12 6 20 18 20 33 0 10-4 19-10 26 0 1 0 3 0 4 0 41-9 76-25 105v110l0 0c-1 12-12 22-123 22-110 0-122-10-123-22l0 0v-110c-16-29-24-64-24-105 0-1 0-3 0-4-7-7-11-16-11-26 0-15 9-27 21-33 7-21 17-40 30-58 2-3 5-5 7-8-64-18-111-76-111-145v-62h33v62c0 60 46 110 106 116 15-12 29-22 45-26v-1c0-15 12-27 27-27 15 0 28 12 28 27v1c15 4 30 14 44 26 60-6 106-56 106-116v-62h34v62c0 69-47 127-112 145z m-190 237v67c58-10 122-10 180 0v-67c-58-10-122-10-180 0z m10-209c-22 29-34 64-34 101 0 10 1 19 2 28 40-1 114-38 167 29 13-32 30-51 59-58 0-37-11-71-33-100-54-72-108-72-161 0z m30 91c-11 0-21-9-21-21 0-12 10-21 21-21 12 0 22 9 22 21 0 12-10 21-22 21z m100 0c-12 0-21-9-21-21 0-12 9-21 21-21 12 0 21 9 21 21 0 12-9 21-21 21z m-50-267c-8 0-14-6-14-14 0-8 6-15 14-15s15 7 15 15c0 8-7 14-15 14z m0 47c-8 0-14-7-14-15s6-15 14-15 15 7 15 15-7 15-15 15z" horiz-adv-x="1000" />
<glyph glyph-name="09" unicode="&#xe807;" d="m334 302c15 26 25 108 166 108v32c-41 0-79-15-108-40-30-25-51-60-58-100z m149 193c-115-8-206-105-206-222v-44h446v44c0 117-91 214-206 222v19h46v19c0 17-15 31-32 31h-62c-17 0-31-14-31-31v-19h45v-19z m207-222v-11h-379v11c0 105 85 190 189 190 105 0 190-85 190-190z m33-76v17h-446v-17c0-9-7-16-15-16h-17v-47h510v47h-17c-8 0-15 7-15 16z" horiz-adv-x="1000" />
<glyph glyph-name="08" unicode="&#xe808;" d="m764 166h-46v204c0 112-84 204-192 217 3 5 6 11 6 17 0 17-15 32-32 32-18 0-32-15-32-32 0-6 2-12 5-17-108-13-192-105-192-217v-204h-46v-33h46v0h21c-2-6-4-12-4-18 0-29 23-52 52-52 28 0 51 23 51 52 0 6-1 12-4 18h195c0 0 0 0 0 0v0h10c-2-6-4-12-4-18 0-29 23-52 52-52 28 0 51 23 51 52 0 6-1 12-4 18h21v0h46v33z m-389 0l0 178 217 0v-178h-40l-177 0z m90 211c7 13 19 22 35 22 15 0 28-9 34-22h-69z m-151-7c0 102 83 185 186 185s185-83 185-185v-204h-28c0 0 0 0 0 0v178c0 18-15 33-33 33h-32v0c0 0 0 0 0 0h-34c-7 25-31 44-58 44-28 0-51-19-59-44h-66c-18 0-33-15-33-33v-178c0 0 0 0 0 0h-28v204z m36-274c-10 0-18 9-18 19 0 10 8 18 18 18 10 0 18-8 18-18 0-10-8-19-18-19z m318 19c0-10-8-19-18-19-10 0-18 9-18 19 0 10 8 18 18 18 10 0 18-8 18-18z" horiz-adv-x="1000" />
<glyph glyph-name="10" unicode="&#xe809;" d="m795 309c0 23-18 41-40 41h-39v213c0 9-2 18-6 27-3 8-8 15-14 21-26 26-71 26-97 0-4-4-8-9-11-14l-48-13 95-56-15 56c1 1 2 3 3 4 13 13 36 13 49 0 3-4 6-7 7-11 2-5 3-9 3-14v-213h-436c-22 0-40-18-40-41 0-19 14-34 32-38v-6c0-67 45-123 105-142-3-5-8-10-13-15-3 1-5 2-7 2-13 0-24-11-24-24 0-13 11-24 24-24 10 0 18 7 22 16 14 10 25 24 33 39 3 0 5 0 8 0h229c2 0 5 0 8 0 7-15 19-29 33-39 3-9 12-16 22-16 13 0 24 11 24 24 0 13-11 24-24 24-3 0-5-1-7-2-5 5-10 10-14 15 61 19 106 75 106 142v6c18 4 32 19 32 38z m-549 7h509c4 0 7-3 7-7 0-3-3-6-7-6h-509c-4 0-7 3-7 6 0 4 3 7 7 7z m369-166h-229c-63 0-115 51-115 115v4h458v-4c0-64-51-115-114-115z m-38 394c-7 5-17 2-21-5-5-8-2-18 5-22 8-5 18-2 22 6 5 7 2 17-6 21z m-65-50c7-4 17-1 22 6 4 8 1 18-6 22-8 4-18 2-22-6-4-7-2-17 6-22z m-44-34c7-4 17-1 21 6 5 8 2 18-5 22-8 4-18 2-22-6-5-7-2-17 6-22z m62 2c-8 4-18 1-22-6-5-8-2-18 6-22 7-4 17-2 21 6 5 7 2 17-5 22z m30-55c7-4 17-1 21 6 5 8 2 18-5 22-8 4-18 2-22-6-5-7-2-17 6-22z m1 77c-4-7-2-17 6-22 8-4 17-1 22 6 4 8 1 18-6 22-8 4-17 2-22-6z" horiz-adv-x="1000" />
<glyph glyph-name="11" unicode="&#xe80a;" d="m524 538c-45 24-91 50-156 50l-4 0c-87 0-158-72-158-159 0-66 40-123 97-147l38-139c5-19 22-31 41-31h48c14 0 26 6 34 16 7 10 10 22 8 36l-15 87h19c14 0 26 11 26 26v30c7 4 14 8 22 12 18 10 36 21 57 29h51v161h-51c-21 9-39 19-57 29z m-86-389c-2-3-5-4-8-4h-48c-4 0-8 3-9 7l-32 120c7-2 15-2 23-2l4 0c0 0 0 0 1 0h0c0 0 0 0 0 0 8 0 16 0 24 1 2 0 5 1 7 1 6 1 11 2 16 3 1 0 2 0 3 0l20-117c1-6-1-8-1-9z m70 200c-30-17-59-32-93-40-4-1-7-2-11-2-11-2-23-4-36-4l-4 0c-8 0-15 1-23 3-3 0-5 1-7 2-55 13-95 62-95 121 0 69 56 125 125 125l4 0c57 0 97-22 140-45 18-10 37-21 58-30v-101c-21-9-40-19-58-29z m91 33h-11v94l11 0v-94z m-235 103c-31 0-56-25-56-56s25-57 56-57 57 25 57 57-25 56-57 56z m380 24c0 24-20 44-44 44v-33c6 0 10-5 10-11 0-5-4-10-10-10h-46v-34h46c24 0 44 20 44 44z m-70-117h-20v-33h20c6 0 11-5 11-11 0-6-5-10-11-10v-34c25 0 44 20 44 44 0 24-19 44-44 44z m77 53h-97v-33h97c6 0 11-5 11-11 0-5-5-10-11-10v-33c24 0 44 19 44 43s-20 44-44 44z" horiz-adv-x="1000" />
<glyph glyph-name="12" unicode="&#xe80b;" d="m793 313c-4 11-10 19-18 25l-251 169c-5 3-8 8-8 14l0 5c0 2 1 5 5 7 22 9 36 30 36 54 0 31-26 57-57 57-32 0-58-26-58-57h33c0 13 11 24 25 24 13 0 24-11 24-24 0-10-6-19-15-23-16-6-25-20-26-37l0-5c-1-17 7-33 22-43l251-169c2-1 4-3 4-6 1-3 1-7 0-10-1-3-3-5-5-7-3-2-6-3-9-3h-72l0 35h-348l0-35h-72c-4 0-7 1-9 3-3 2-5 4-6 7-1 3-1 7 0 10 1 3 2 5 4 6l226 156-19 27-226-155c-8-6-14-15-17-25-3-10-3-20 1-30 3-10 9-18 18-23 8-6 17-9 28-9h72l0-191h16c15 0 28 5 38 15 8 8 21 8 29 0 21-20 56-20 76 0 8 8 21 8 29 0 20-20 56-20 76 0 8 8 21 8 29 0 10-10 24-15 38-15h17l0 191h72c10 0 20 3 28 9 8 5 14 13 17 23 4 10 4 20 2 30z m-153-212c-20 19-54 18-73-2-8-8-22-8-29 0-10 10-24 16-38 16-15 0-28-6-38-16-8-8-21-8-29 0-20 20-54 20-74 2v185h281v-185z" horiz-adv-x="1000" />
<glyph glyph-name="13" unicode="&#xe80c;" d="m601 277c3 3 5 5 8 8 13 18 23 38 30 58 12 7 21 19 21 34 0 11-4 20-11 27 0 0 0 1 0 1l0 1c12 96-13 147-36 173-24 27-56 41-91 41-34 0-62-13-76-32-8 3-15 5-23 5-59 0-72-101-72-185v-4c-6-7-10-16-10-27 0-15 8-27 21-34 7-20 17-40 30-58 2-3 5-5 7-8-65-17-112-76-112-147v-52h33v52c0 40 20 76 50 97v-149h130 130v149c31-21 51-57 51-97v-52h33v52c0 71-48 130-113 147z m-215 114h9v17c0 31 8 63 25 87 27-19 54-29 82-29 27 0 54 10 80 28 16-24 24-56 24-86v-17h9c-3-31-14-60-33-86-55-72-109-72-163 0-19 26-30 55-33 86z m114-275c-58 33-78 70-81 131 3 0 6 1 9 1 7-7 15-12 23-16 0-17 0-33 0-49 14 1 27 5 37 12 3-3 7-5 12-5 5 0 10 2 13 5 10-8 23-11 37-12 0 16 0 32 0 49 8 4 15 9 23 16 3 0 6-1 9-1-3-61-23-98-82-131z m-50 246c12 0 21 9 21 21 0 12-9 22-21 22-12 0-22-10-22-22 0-12 10-21 22-21z m101 0c12 0 21 9 21 21 0 12-9 22-21 22-12 0-22-10-22-22 0-12 10-21 22-21z" horiz-adv-x="1000" />
<glyph glyph-name="14" unicode="&#xe80d;" d="m682 345h-31v37h-423v-155c0-56 34-107 85-128 18-23 44-36 72-36h109c28 0 55 13 72 36 31 13 56 37 71 67h45c49 0 90 40 90 89 0 50-41 90-90 90z m-133-217l-4-2-3-4c-11-16-29-25-48-25h-109c-19 0-37 9-48 25l-2 4-5 2c-41 16-69 55-69 99v121h357v-3-118c0-6-1-12-2-18 0-2-1-4-1-6-1-4-2-8-3-11-11-29-33-53-63-64z m133 71h-34c1 1 1 2 1 3 1 8 2 17 2 25v85h31c31 0 56-25 56-57 0-31-25-56-56-56z m-364 109h-34v-81c0-17 6-33 15-47 10-14 23-24 39-31-16 30-20 42-20 78v81z m160 89c-6 55 56 74 9 129 4-47-73-70-9-129z m-47 239c6-76-120-114-14-210-12 89 91 121 14 210z" horiz-adv-x="1000" />
<glyph glyph-name="16" unicode="&#xe80e;" d="m742 351h-22v10c0 118-92 214-208 220 8 4 14 13 14 23 0 15-12 26-26 26-15 0-27-11-27-26 0-10 6-19 14-23-115-6-208-102-208-220v-10h-22v-34h22v0h119c-1-4 0-8 3-12l6-7c17-19 32-38 47-57 16-20 32-40 49-60 1-1 3-2 4-4 2-1 3-2 5-2 12-5 21-8 28-10 18-6 26-8 50-32l4-4 3 5 39 72 2 2-2 3c-3 2-6 5-8 9-2 3-4 6-5 9-5 11-6 22-5 33v0c4 37 15 46 20 55h82v0h22v34z m-429 10c0 103 84 187 187 187 103 0 187-84 187-187v-10h-374v10z m271-62h-1c-2-8-6-17-10-22-8-9-17-14-26-16-11-1-22 2-32 8l-68 48h145c-3-5-6-12-8-18z m-245 102c-1-2-1-4-2-6 1 2 2 4 2 6z m0 0c10 30 41 94 161 94v33c-41 0-78-15-107-39-26-23-45-53-54-88z" horiz-adv-x="1000" />
<glyph glyph-name="15" unicode="&#xe80f;" d="m509 576c-120 0-217-97-217-216 0-119 97-216 217-216 119 0 216 96 216 216 0 119-97 216-216 216z m0-399c-101 0-183 82-183 183s82 182 183 182c100 0 182-82 182-182s-82-183-182-183z m0 318c-75 0-135-61-135-135 0-75 60-135 135-135 74 0 135 60 135 135 0 74-61 135-135 135z m0-237c-56 0-102 46-102 102s46 101 102 101c56 0 101-45 101-101s-45-102-101-102z m292-56c-6 23-11 51-11 79 0 93 0 186 0 280 0 3-5 7-11 7-95 0-24-166-24-204 0-28 0-55 0-83 0-28-4-56-10-79-17-67 73-67 56 0z m-546 352v-89h-18v89c0 9-17 9-17 0v-89h-18v89c0 9-21 9-21 0l0-103h0c1-67 31-66 31-108 0-5 0-10 0-18 0-38-4-78-9-110-16-92 67-92 51 0-5 32-10 72-10 110 0 8 0 13 0 18 0 42 31 41 31 108v103c0 9-20 9-20 0z" horiz-adv-x="1000" />
<glyph glyph-name="17" unicode="&#xe810;" d="m435 513h-144l-4-10c-28-73-48-138-23-189 14-28 41-49 82-63v-128c0-19-15-34-34-34h-27v-34h27v0c0 0 0 0 0 0h102c0 0 0 0 0 0v0h27v34h-27c-19 0-34 15-34 34v128c40 14 68 35 82 63 25 51 5 116-23 189l-4 10z m-141-184c-18 37-3 90 20 151h98c9-25 17-50 23-72h-90c-11-21-17-38-22-62-6 16-2 40 3 62h-4-13l-3-13c-2-11-3-23-3-33 1-12 2-22 6-31l0 0c6-15 16-27 29-35 8-7 18-11 28-15-1 0-2-1-3-1-36 11-58 28-69 49z m451 100c-11 14-25 24-43 29-1 0-2 0-2 1-1 1-1 2-1 3v25 17 17 100c0 13-11 24-24 24h-72c-13 0-23-11-23-24v-134h0v-25c0-1-1-2-1-3-1-1-2-1-3-1-17-5-32-15-43-29-10-13-16-30-16-48v-302c0-6 3-12 7-17l0 0c4-4 10-7 17-7h197c6 0 12 3 17 7l0 0c4 5 7 11 7 17v302c0 18-7 35-17 48z m-79 92h-53v17h53v-17z m0 90v-39h-53v39h53z m-99-207c5 6 12 11 21 13 20 6 34 24 34 45v25h2c19-38 7-80-31-90-3-1-7-3-9-6-2-3-3-7-3-10h-22c0 8 3 16 8 23z m171-253h-197v154h197v-154z" horiz-adv-x="1000" />
<glyph glyph-name="18" unicode="&#xe811;" d="m517 154v103l183 258h-94c-4 12-13 22-25 29l23 85-21 6-23-85c-1 0-2 0-2 0-23 0-42-15-49-35h-208l183-258v-103c0-31-26-57-57-57h-39v-33h39v0c0 0 0 0 0 0h147c0 0 0 0 0 0v0h39v33h-40c-31 0-56 26-56 57z m89 327h29l-36-50h-48l4 15c1 0 2 0 3 0 22 0 41 15 48 35z m-48 47c16 0 29-14 29-30 0-16-13-30-29-30-17 0-30 14-30 30 0 16 13 30 30 30z m-49-47c4-12 13-23 25-29l-6-21h-93l4-5 78-111-17-24-134 190h143z" horiz-adv-x="1000" />
<glyph glyph-name="19" unicode="&#xe812;" d="m401 452c-23 0-41-19-41-42s18-42 41-42 42 19 42 42-19 42-42 42z m146 89h-93v13c0 10-4 19-9 27v55h-22v-35c-7 3-14 5-22 5-7 0-15-2-21-5v35h-22v-55c-6-8-9-17-9-27v-13h-93c-27 0-49-22-49-48v-430h388v430c0 26-21 48-48 48z m15-445h-118l7 123c20 0 36 16 36 36v65c0 20-16 37-36 37h-46-53c-20 0-36-17-36-37v-65c0-20 16-36 36-36l7-123h-118v397c0 8 7 15 15 15h93 105 93c8 0 15-7 15-15v-397z m206 143c-14 15-35 24-57 24-23 0-43-9-58-24l0 0c-15-15-24-35-24-58 0-22 9-43 24-57l0 0c15-15 35-24 58-24 22 0 43 9 57 24v0c15 14 24 35 24 57 0 23-9 43-24 58v0z m4-44l-50-51-11-11-12 11-50 51 23 23 39-38 38 38 23-23z m-119 142c15-14 35-23 58-23 22 0 43 9 57 23v1c15 14 24 35 24 57 0 23-9 43-24 58v0c-14 14-35 24-57 24-23 0-43-10-58-24l0 0c-15-15-24-35-24-58 0-22 9-43 24-57l0-1z m46 95l12 12 11-12 50-50-23-24-38 39-39-39-23 24 50 50z" horiz-adv-x="1000" />
<glyph glyph-name="20" unicode="&#xe813;" d="m491 487l93 94c1-1 1-1 2-1 14 0 25 12 25 26 0 14-11 25-25 25-14 0-25-11-25-25 0-1 0-1 0-2l-102-101-72 72c0 0 0 1 0 1 0 14-11 26-25 26-14 0-26-12-26-26 0-14 12-25 26-25 0 0 1 0 1 0l64-64h-197v-369h540v369h-279z m246-335h-473v302h473v-302z m-56 229c10 0 19 8 19 19 0 10-9 19-19 19-11 0-19-9-19-19 0-11 8-19 19-19z" horiz-adv-x="1000" />
<glyph glyph-name="33" unicode="&#xe814;" d="m798 486c0 22-14 40-34 46v1h-521v-1c-20-6-35-24-35-46v-138h205l-43-118h31l43 118h43l-43-118h31l43 118h39l-43-118h31l43 118h210v138z m-33-105l0 0h-474c0 0 0 0 0 1 0 6-5 11-11 11s-11-5-11-11c0-1 0-1 0-1h-27v105c0 9 7 16 15 16h492c9 0 16-7 16-16v-105z" horiz-adv-x="1000" />
<glyph glyph-name="32" unicode="&#xe815;" d="m500 343h0c-15 0-27-12-27-27v-217c0-15 12-27 27-27h0c15 0 28 12 28 27v217c0 15-13 27-28 27z m165 272h-36v13h-22v-13c-15 0-27-6-37-15l0 0c-9-10-15-23-15-37 0-15-6-29-16-39-6-5-13-9-20-12-6 2-12 4-19 4-7 0-13-2-19-4-7 3-14 7-19 12-10 10-17 24-17 39 0 14-5 27-15 37l0 0c-9 9-22 15-36 15v13h-23v-13h-36c-9 0-17-7-17-16 0-9 8-17 17-17h36v-12h23v12c5 0 9-2 12-6l0 0 1 0c3-3 5-8 5-13 0-24 10-46 26-62 6-6 13-11 20-15-1-5-3-9-3-15 0-19 12-35 28-41v-40c-34-7-60-38-60-74v-54h-34v-93h-36v-22h58v92h12v-64h34v141c0 24 19 43 43 43 24 0 44-19 44-43v-141h33v64h34v93h36v22h-58v-92h-12v54c0 36-26 67-60 74v40c16 6 28 22 28 41 0 6-1 10-3 15 7 4 14 9 20 15 16 16 26 38 26 62 0 5 2 10 6 13l0 0 0 0c3 4 8 6 13 6v-12h22v12h36c10 0 17 8 17 17 0 9-7 16-17 16z m-165-166c-12 0-23 10-23 22 0 13 11 23 23 23 13 0 23-10 23-23 0-12-10-22-23-22z" horiz-adv-x="1000" />
<glyph glyph-name="31" unicode="&#xe816;" d="m648 142l117 117-33 34-110-111h-126l0 199h229l-4 19c-20 112-113 193-225 200l0 27-33 0 0-27c-112-7-205-89-225-200l-4-19h229l0-199h-212v-47h35l-17-64h48l17 64h129l0-33h0l0-31h33l0 43h0l0 21h97l17-64h48l-17 64 7 7z m-196 272c-4 52 6 108 26 143-73 0-122-75-140-143h-63c26 91 109 154 205 155 96 0 179-64 204-155h-2c-23 66-80 122-150 137 29-34 50-70 66-137h-146z" horiz-adv-x="1000" />
<glyph glyph-name="30" unicode="&#xe817;" d="m268 338c-1-4-2-10-2-15-1-15 0-31 1-46h112l-10 34c-34 0-82 12-101 27z m363-27l-10-34h112c1 15 1 31 1 46-1 5-1 11-3 15-18-15-66-27-100-27z m-333-80c-9 0-16-8-16-17 0-9 7-16 16-16 9 0 17 7 17 16 0 9-8 17-17 17z m403 0c-9 0-16-8-16-17 0-9 7-16 16-16 9 0 17 7 17 16 0 9-8 17-17 17z m82 191v0c0 12-10 21-22 21h-23c-10 0-18-7-20-17l-42 74c-7 13-18 21-33 24-18 3-43 5-71 7v26c0 9-7 17-16 17h-112c-9 0-17-8-17-17v-26c-28-2-53-4-71-7-14-3-26-11-33-24l-41-74c-3 10-11 17-21 17h-23c-12 0-21-9-21-21v0c0-12 9-22 21-22h14c-21-21-33-46-33-76-1-21 0-49 3-79v-109c0-6 4-10 10-10h78c6 0 10 4 10 10v17h359v-17c0-6 5-10 10-10h78c6 0 11 4 11 10v109c2 30 3 58 3 79-1 30-12 55-33 76h13c12 0 22 10 22 22z m-44-236h-116l-10 48h-227l-10-48h-115c-5 45-10 104-9 137 1 31 16 54 48 73l3 2c64 6 128 9 194 9 68 0 135-4 200-10l2-1c32-19 48-42 48-73 1-33-3-91-8-137z m-185 365v-19c-7 0-14 0-21 0v19h21z m-44 0v-18c-3 0-7 0-10 0-4 0-7 0-11 0v18h21z m-65 0h22v-19c-8 0-15 0-22 0v19z" horiz-adv-x="1000" />
<glyph glyph-name="29" unicode="&#xe818;" d="m599 411l-110 29c-24 5-40 27-40 50 0 29 23 52 51 52 29 0 52-23 52-52 0-24 21-41 51-41 30 0 51 17 51 41 0 85-69 154-154 154-85 0-154-69-154-154v-390c0-25 21-45 46-45h217c25 0 45 20 45 45v239c0 34-22 63-55 72z m22-311c0-6-6-12-12-12h-217c-7 0-12 6-12 12v390c0 67 54 121 120 121 67 0 121-54 121-121 0-11-36-11-36 0 0 47-38 85-85 85-47 0-85-38-85-85 0-39 27-74 66-82l109-30c19-4 31-20 31-39v-239z m-121 230c-27 0-52-11-69-29l0 0c-18-18-29-42-29-70 0-27 11-52 29-69 17-18 42-29 69-29 27 0 52 11 70 29l0 0c18 18 29 42 29 69 0 28-11 52-29 70-18 18-43 29-70 29z m52-115h-104v33h104v-33z" horiz-adv-x="1000" />
<glyph glyph-name="28" unicode="&#xe819;" d="m771 382c-6 6-13 12-19 18-8 8-12 15-15 23-5 13-13 23-25 31-11 8-22 15-22 15-14 17-28 34-42 51l-3-55-40 45 8-63c-2-1-7-6-15-13l76-78 67-21c8-2 16 0 22 6 3 4 6 7 9 10 8 9 8 22-1 31z m-154-126c0 23 9 40 22 57l-88 90c-15-7-32-12-49-12h-179l-65 61c-9 8-22 7-30-1-9-9-8-23 1-31l53-70c-19-63-15-177-24-231-3-17 10-34 27-37 18-3 35 9 38 27 2 14 5 37 9 57 5 33 29 43 51 54h176l32-120c5-18 23-28 40-23 18 4 28 22 23 40l-37 139z m-41 179c-1 0-1 0-2 0l-190 193-16-16 190-193c0 0 0-1 0-1 0-8 5-15 12-17l76-78c7 8 13 16 20 24l-73 75c-2 8-9 13-17 13z" horiz-adv-x="1000" />
<glyph glyph-name="27" unicode="&#xe81a;" d="m768 427h-22l-100 174c-7 12-24 16-36 9l-390-225c-6-4-11-10-13-16-1-7 0-14 3-20l81-140v-101c0-14 12-26 26-26h451c15 0 26 12 26 26v293c0 15-11 26-26 26z m-444-90h437v-34h-437v34z m0 33v24h437v-24h-437z m0-255v36 119h437v-155h-437z" horiz-adv-x="1000" />
<glyph glyph-name="26" unicode="&#xe81b;" d="m341 266h-86c0-10 0-20 1-31h94l-9 31z m305 0h-86l-8-31h93c1 11 1 21 1 31z m-378-69c0-8 7-14 14-14 8 0 14 6 14 14 0 8-6 14-14 14-7 0-14-6-14-14z m337 0c0-8 6-14 14-14 8 0 14 6 14 14 0 8-6 14-14 14-8 0-14-6-14-14z m132 400h-188c-27 0-49-22-49-49v-85c-16 1-33 2-49 2-50 0-94-3-121-8-13-3-23-11-30-23l-33-62c-3 7-9 11-17 11h-17c-10 0-19-8-19-19 0-10 9-19 19-19h7c-17-19-26-42-27-68-1-26 2-66 5-103v-64c0-5 4-9 9-9h65c5 0 9 4 9 9v13h299v-13c0-5 4-9 9-9h65c5 0 9 4 9 9v64c3 37 6 77 5 103l-33-1c1-29-3-80-7-119h-95l-8 40h-189l-8-40h-94c-5 40-8 90-8 119 1 27 13 47 40 64l3 2 1 1c52 5 105 8 159 8 17 0 35 0 53-1 4-22 23-40 47-40h188c28 0 50 22 50 50v188c0 27-22 49-50 49z m16-237c0-9-7-16-16-16h-188c-9 0-16 7-16 16v188c0 9 7 16 16 16h188c9 0 16-7 16-16v-188z m-61 163c-6 4-12 7-19 8-6 2-14 3-23 3h-63v-160h41v52h21c5 0 11 1 15 2 5 1 9 2 13 3 4 2 8 4 11 6 3 3 6 5 9 8 4 5 8 10 10 17 2 7 4 14 4 21 0 10-2 18-5 24-4 7-8 12-14 16z m-24-52c-1-3-3-6-6-8-1-2-3-3-5-4-3-1-5-2-7-2-3 0-6-1-9-1-3 0-7 0-11 0h-2v48h5c6 0 11 0 14 0 4-1 8-2 11-3 3-2 6-4 8-7 2-3 3-7 3-12 0-4 0-8-1-11z" horiz-adv-x="1000" />
<glyph glyph-name="25" unicode="&#xe81c;" d="m386 288v53h23l-27 33h-131-17v-17-86-17h17 227l-27 34h-65z m-118 53h85v-53h-85v53z m400 33h-199l-197 246-26-21 426-532 26 21-133 166h103c14 0 26 6 35 14 8 9 14 21 14 35v22c0 14-6 26-14 35-9 8-21 14-35 14z m-172-33h148v-53h-106l-42 53z m216 38c-7 52 53 71 8 123 4-44-70-66-8-123z m-46 254c6-73-115-109-14-202-10 86 88 116 14 202z" horiz-adv-x="1000" />
<glyph glyph-name="24" unicode="&#xe81d;" d="m424 322h177v-34h34v295c0 9 6 16 15 16 8 0 15-7 15-16h34c0 27-22 49-49 49-27 0-49-22-49-49v-115h-177v115c0 9 7 16 15 16 9 0 16-7 16-16h33c0 27-22 49-49 49-27 0-48-22-48-49v-295h33v34z m177 113v-80h-177v80h177z m-267-273c94 12 128-95 221-15-80-6-119 126-221 15z m95 54c119 14 161-122 280-20-101-8-151 160-280 20z m-22 21c-53-4-79 84-146 10 62 8 84-63 146-10z m221 10c62 8 84-63 146-10-53-4-79 84-146 10z m48-96c43 5 59-44 102-7-37-3-55 58-102 7z m-454 0c44 5 59-44 103-7-37-3-56 58-103 7z" horiz-adv-x="1000" />
<glyph glyph-name="23" unicode="&#xe81e;" d="m485 507c28 0 50 23 50 51 0 27-22 50-50 50-28 0-50-23-50-50 0-28 22-51 50-51z m-202-283l110 30c4 1 6 4 7 7l16 58c22-6 45-12 67-18l25-92c3-11 14-18 26-15 11 3 17 15 15 26l-30 109c-1 4-4 7-7 8l-38 10 4 16 15 56 0 1 17-28 5-9h9 81c9 0 17 8 17 17 0 10-8 17-17 17h-71l-37 64c-3 5-8 8-13 8v0h-1c-44 0-89 0-133 0h-9l-5-8-42-72c-4-8-2-19 6-23 8-5 19-2 23 6l37 63h49c-15-55-30-110-45-165l-92-25c-11-3-18-14-15-26 3-11 15-18 26-15z m463-40h-18v295l50 23-24 40-126-72 16-28 51 23v-281h-441c-26 0-47-21-47-47 0-26 21-47 47-47h492c25 0 46 21 46 47 0 26-21 47-46 47z m0-60h-492c-7 0-14 6-14 13 0 7 6 13 14 13h492c7 0 13-6 13-13 0-7-6-13-13-13z" horiz-adv-x="1000" />
<glyph glyph-name="22" unicode="&#xe81f;" d="m264 187h472v348h-472v-348z m23 326h427v-304h-427v304z m459 81h-492c-27 0-49-22-49-48v-369c0-27 22-49 49-49h42v-22h111v22h186v-22h111v22h42c27 0 49 22 49 49v369c0 26-22 48-49 48z m15-417c0-9-7-16-15-16h-42-111-186-111-42c-8 0-15 7-15 16v369c0 8 7 15 15 15h492c8 0 15-7 15-15v-369z m-364 269c0 20-16 36-36 36s-36-16-36-36c0-13 8-25 19-31v-108c-11-6-19-17-19-31 0-20 16-36 36-36s36 16 36 36c0 14-8 25-19 31v108c11 6 19 18 19 31z m146-20c-10 0-18-8-18-18s8-18 18-18c10 0 18 8 18 18s-8 18-18 18z m0-47c-10 0-18-8-18-18 0-10 8-18 18-18 10 0 18 8 18 18 0 10-8 18-18 18z m0-47c-10 0-18-8-18-18 0-10 8-18 18-18 10 0 18 8 18 18 0 10-8 18-18 18z m46 94c-10 0-18-8-18-18s8-18 18-18 18 8 18 18-8 18-18 18z m0-47c-10 0-18-8-18-18 0-10 8-18 18-18s18 8 18 18c0 10-8 18-18 18z m0-47c-10 0-18-8-18-18 0-10 8-18 18-18s18 8 18 18c0 10-8 18-18 18z m47 94c-10 0-18-8-18-18s8-18 18-18c10 0 18 8 18 18s-8 18-18 18z m0-47c-10 0-18-8-18-18 0-10 8-18 18-18 10 0 18 8 18 18 0 10-8 18-18 18z m0-47c-10 0-18-8-18-18 0-10 8-18 18-18 10 0 18 8 18 18 0 10-8 18-18 18z" horiz-adv-x="1000" />
<glyph glyph-name="21" unicode="&#xe820;" d="m596 344c0 53-43 96-96 96-54 0-97-43-97-96 0-41 25-76 60-90v-177h73v177c35 14 60 49 60 90z m-96-64c-35 0-64 29-64 64 0 35 29 63 64 63s63-28 63-63c0-35-28-64-63-64z m-154 64c0 42 17 81 45 108h0c28 28 66 46 109 46 42 0 81-18 109-46 27-27 45-66 45-108 0-43-18-81-45-109-9-9-18-16-29-22v-37c19 9 37 21 51 36 34 34 55 80 55 132s-21 97-55 131c-33 34-80 55-131 55-52 0-98-21-132-55l0 0c-33-34-54-80-54-131 0-52 20-98 54-132 15-15 32-27 51-36v37c-10 6-20 13-28 22-28 28-45 66-45 109z m351 197h0c-51 50-120 82-197 82-77 0-147-32-198-82v0c-50-51-81-120-81-197 0-77 31-147 81-198l0 0 0 0c33-32 72-56 117-69v33c-36 13-68 33-94 59l0 0c-45 45-72 106-72 175 0 68 27 130 72 174l0 0c45 45 107 73 175 73 68 0 130-28 174-73l0 0c45-44 73-106 73-174 0-69-28-130-73-175-26-26-58-46-94-59v-33c45 13 85 37 117 69l0 0c50 51 82 121 82 198 0 77-32 146-82 197z" horiz-adv-x="1000" />
</font>
</defs>
</svg>
