<?xml version="1.0" ?><svg enable-background="new 0 0 512 512" id="Layer_1" version="1.1" viewBox="0 0 512 512" xml:space="preserve" xmlns="http://www.w3.org/2000/svg" xmlns:xlink="http://www.w3.org/1999/xlink"><g><g><linearGradient gradientUnits="userSpaceOnUse" id="SVGID_1_" x1="-0.0000027" x2="512" y1="256" y2="256"><stop offset="0" style="stop-color:#F67950"/><stop offset="1" style="stop-color:#F15A29"/></linearGradient><circle cx="256" cy="256" fill="url(#SVGID_1_)" r="256"/><linearGradient gradientUnits="userSpaceOnUse" id="SVGID_2_" x1="42.6666641" x2="469.3333435" y1="256.0005188" y2="256.0005188"><stop offset="0" style="stop-color:#F15A29"/><stop offset="1" style="stop-color:#F67950"/></linearGradient><path d="M256,469.3338623c-117.6309967,0-213.3333435-95.7023926-213.3333435-213.3333435    c0-117.6314545,95.7023392-213.333313,213.3333435-213.333313c117.6362,0,213.3333435,95.7018661,213.3333435,213.333313    C469.3333435,373.6314697,373.6362,469.3338623,256,469.3338623z" fill="url(#SVGID_2_)"/></g><g><path d="M287.9706116,274.2186584v6.1317444h15.9754639v86.1471863    c0,9.6645508,7.8335876,17.4976196,17.496521,17.4976196h0.0005493c9.6629333,0,17.496521-7.8330688,17.496521-17.4976196    V144.0053253C306.1706543,179.4506683,287.9706116,225.9472046,287.9706116,274.2186584z" opacity="0.3"/><path d="M237.7695465,223.5007935h-9.9994812v-79.4997253h-11.9658661v79.4997253h-10v-79.4997253h-16.743988    v70.4693298c0,12.834137,6.2069244,24.8751984,16.6607971,32.3210754v121.1408081    c0,8.8725281,7.1930695,16.0661316,16.0656586,16.0661316c8.8735352,0,16.0666046-7.1936035,16.0666046-16.0661316V246.7914734    c10.4528046-7.4458771,16.6602631-19.4869385,16.6602631-32.3210754v-70.4693298h-16.743988V223.5007935z" opacity="0.3"/></g><g><path d="M279.9706116,266.2186584v6.1317444h15.9754639v86.1471863    c0,9.6645508,7.8335876,17.4976196,17.496521,17.4976196h0.0005493c9.6629333,0,17.496521-7.8330688,17.496521-17.4976196    V136.0053253C298.1706543,171.4506683,279.9706116,217.9472046,279.9706116,266.2186584z" fill="#FFFFFF"/><path d="M229.7695465,215.5007935h-9.9994659v-79.4997253h-11.9658813v79.4997253h-10v-79.4997253h-16.743988    v70.4693298c0,12.834137,6.2069244,24.8751984,16.6607971,32.3210754v121.1408081    c0,8.8725281,7.1930695,16.0661316,16.0656586,16.0661316c8.8735352,0,16.0666046-7.1936035,16.0666046-16.0661316V238.7914734    c10.4528046-7.4458771,16.6602631-19.4869385,16.6602631-32.3210754v-70.4693298h-16.743988V215.5007935z" fill="#FFFFFF"/></g></g></svg>