<svg id="Capa_1" enable-background="new 0 0 512 512" height="512" viewBox="0 0 512 512" width="512" xmlns="http://www.w3.org/2000/svg"><g><path d="m256 361c-91.126 0-165 33.578-165 75 0 41.42 73.874 76 165 76s165-34.58 165-76c0-41.422-73.874-75-165-75z" fill="#91dc5a"/><path d="m421 436c0-41.422-73.874-75-165-75v151c91.126 0 165-34.58 165-76z" fill="#64c37d"/><path d="m256 0c-81.108 0-165 61.714-165 165 0 94.351 147.217 273.08 153.472 280.609 2.856 3.413 7.075 5.391 11.528 5.391s8.672-1.978 11.528-5.391c6.255-7.529 153.472-186.258 153.472-280.609 0-90.981-74.019-165-165-165zm0 270c-57.891 0-105-47.109-105-105s47.109-105 105-105 105 47.109 105 105-47.109 105-105 105z" fill="#ff7f4b"/><path d="m421 165c0-90.981-74.019-165-165-165v60c57.891 0 105 47.109 105 105s-47.109 105-105 105v181c4.453 0 8.672-1.978 11.528-5.391 6.255-7.529 153.472-186.258 153.472-280.609z" fill="#fd5219"/></g></svg>