<svg id="Layer_1" data-name="Layer 1" xmlns="http://www.w3.org/2000/svg" viewBox="0 0 48 48"><defs><style>.cls-1{fill:#b5e08c;}.cls-2{fill:#9fd367;}.cls-3{fill:#84b749;}</style></defs><title>lettuce, vegetable, healthy, organic, food</title><path class="cls-1" d="M1.51,27.19a7.43,7.43,0,0,0,.78,4c0,.65,2.21,4.4,3.86,6.31,2.12,2.82,7.4,6.29,10.39,7,16.08,5.36,32.24-7.56,30.87-24-.08-1.07-1.47-4.59-3.85-7.69C32.83-1.18,10.74,1.52,3.67,17.4A23.45,23.45,0,0,0,1.51,27.19Z"/><path class="cls-2" d="M14.23,23.27c0,14.74,12.76,23,13.58,22.18a23.5,23.5,0,0,0,19.6-24.91c-.08-1.07-1.47-4.59-3.85-7.69A23.49,23.49,0,0,0,23.34,3.77,25.51,25.51,0,0,0,14.23,23.27Z"/><path class="cls-1" d="M30.45,44.87A23.48,23.48,0,0,0,46.73,16.44a22,22,0,0,0-3.17-5.55A23.5,23.5,0,0,0,29.38,2.18C11.35,10.94,11.94,36.94,30.45,44.87Z"/><path class="cls-2" d="M1.51,27.19a7.46,7.46,0,0,0,.79,4c-.41.41,6,13.74,20.5,14.53A25.43,25.43,0,0,0,17.64,4.9,23.49,23.49,0,0,0,1.51,27.19Z"/><path class="cls-1" d="M1.51,25.23a23.47,23.47,0,0,0,.8,6A23.47,23.47,0,0,0,20.1,45.43c.32,0,2.77-2.35,4.25-4.38A23.45,23.45,0,0,0,13.09,5,23.47,23.47,0,0,0,1.51,25.23Z"/><path class="cls-3" d="M30.45,44.87A23.48,23.48,0,0,0,46.73,16.44a22,22,0,0,0-3.17-5.55A22.79,22.79,0,0,0,38,5.68,25.35,25.35,0,0,0,16.74,18.25,23.48,23.48,0,0,0,30.45,44.87Z"/><path class="cls-2" d="M20.1,45.43h0A23.46,23.46,0,0,0,42.58,8C21.9,4.3,7,28.39,20.1,45.43Z"/><path class="cls-1" d="M33.28,39.78c11.2-6.11,9.39-24.63,9.3-25.41l-1.94.2c0,.18,1.76,18-8.3,23.49Z"/><path class="cls-3" d="M20.1,45.43A23.67,23.67,0,0,0,35.58,42.7,25.47,25.47,0,0,0,20.29,16.52,23.42,23.42,0,0,0,20.1,45.43Z"/><path class="cls-3" d="M1.51,25.23a23.47,23.47,0,0,0,.8,6A23.47,23.47,0,0,0,20.1,45.43c.32,0,2.77-2.35,4.25-4.38A23.38,23.38,0,0,0,28.3,21.93,25.43,25.43,0,0,0,3.7,15.34,23.74,23.74,0,0,0,1.51,25.23Z"/><path class="cls-2" d="M33.45,43.77c3.21-18-15.4-33-32.58-25.35C-2.38,36.65,16.48,51.38,33.45,43.77Z"/><path class="cls-1" d="M9.34,23.32c0,.16.69,11.52,8.67,18.91a24.41,24.41,0,0,0,5.12,3.52,21.23,21.23,0,0,0,4.67-.3,20.71,20.71,0,0,1-11.87-8.56,29.5,29.5,0,0,1-4.64-13.67Z"/><rect class="cls-1" x="10.66" y="28.65" width="10.07" height="1.96" transform="translate(-17.83 28.96) rotate(-60.95)"/><rect class="cls-1" x="11.78" y="33.79" width="1.96" height="9.28" transform="translate(-27.73 38.37) rotate(-71.55)"/><rect class="cls-1" x="17.06" y="37.94" width="9.97" height="1.96" transform="translate(-20.44 52.91) rotate(-78.69)"/><rect class="cls-1" x="38.77" y="26.7" width="7.64" height="1.96" transform="translate(-7.85 33.68) rotate(-39.81)"/><rect class="cls-1" x="38.19" y="16.52" width="1.96" height="7.64" transform="translate(-3.94 29.81) rotate(-39.83)"/></svg>