<svg id="Capa_1" enable-background="new 0 0 512 512" height="512" viewBox="0 0 512 512" width="512" xmlns="http://www.w3.org/2000/svg"><path d="m1.501 332.486c1.211-1.815 3.094-3.2 5.439-3.71 22.628-4.923 81.109-12.16 145.937 23.54 0 0 42.017-36.089 103.124-36.089s103.124 36.089 103.124 36.089c64.828-35.699 123.309-28.463 145.937-23.54 2.661.579 4.726 2.285 5.889 4.467-5.887-11.467-57.045-98.396-254.923-98.516-194.007.118-246.979 83.681-254.527 97.759z" fill="#348021"/><path d="m180.312 239.577c9.714-17.604 30.132-47.107 65.633-66.77 53.455-29.608 107.696-18.397 107.696-18.397 39.412-62.64 94.076-84.646 116.256-91.303 2.609-.783 5.241-.291 7.316 1.054-10.706-7.178-97.577-58.435-270.734 37.339-143.108 79.381-169.663 162.076-174.338 195.599 26.125-21.859 71.706-47.129 148.171-57.522z" fill="#348021"/><path d="m193.314 219.412c-79.208 8.609-127.463 32.823-155.882 54.847-2.863 9.025-4.442 16.747-5.291 22.839 26.124-21.859 71.706-47.129 148.171-57.522 3.154-5.713 7.444-12.685 13.002-20.164z" fill="#2e701b"/><path d="m256.003 467.945c183.323 0 241.241-95.815 255.217-126.935 2.294-5.108-.688-11.043-6.16-12.234-22.628-4.923-81.109-12.16-145.937 23.54 0 0-42.017-36.089-103.124-36.089s-103.124 36.089-103.124 36.089c-64.827-35.7-123.308-28.463-145.935-23.54-5.472 1.191-8.454 7.126-6.16 12.234 13.976 31.12 71.894 126.935 255.217 126.935z" fill="#62c136"/><path d="m359.124 352.316c64.828-35.699 123.309-28.463 145.937-23.54 2.661.579 4.726 2.285 5.889 4.467-1.723-3.356-7.336-13.182-19.36-25.399-28.005-3.788-77.993-4.106-132.466 25.891 0 0-42.017-36.089-103.124-36.089s-103.124 36.089-103.124 36.089c-54.436-29.977-104.392-29.679-132.408-25.898-11.226 11.405-16.864 20.726-18.967 24.649 1.211-1.815 3.094-3.2 5.439-3.71 22.628-4.923 81.109-12.16 145.937 23.54 0 0 42.017-36.089 103.124-36.089s103.123 36.089 103.123 36.089z" fill="#2e701b"/><path d="m507.643 329.792c-19.043 36.594-81.029 119.572-251.64 119.572h-.007c-170.612 0-232.597-82.978-251.64-119.572-3.753 2.201-5.477 6.989-3.577 11.218 13.976 31.12 71.894 126.935 255.217 126.935h.007c183.323 0 241.241-95.815 255.217-126.935 1.9-4.229.176-9.017-3.577-11.218z" fill="#5cad32"/><path d="m256.026 234.728c58.073.035 103.494 7.552 138.857 18.439 86.285-76.117 88.641-154.796 86.33-182.342-.468-5.58-5.953-9.327-11.316-7.717-22.179 6.657-76.844 28.663-116.256 91.303 0 0-54.242-11.212-107.696 18.397-35.501 19.663-55.919 49.166-65.633 66.77 22.478-3.056 47.607-4.833 75.714-4.85z" fill="#62c136"/><path d="m394.884 253.167c5.168-4.559 10.027-9.128 14.61-13.694-37.193-13.462-87.057-23.286-153.468-23.326-22.81.014-43.646 1.193-62.712 3.265-5.559 7.479-9.849 14.45-13.002 20.165 22.478-3.055 47.606-4.832 75.714-4.849 58.073.035 103.494 7.552 138.858 18.439z" fill="#5cad32"/><path d="m245.945 172.807c21.66-11.998 43.449-17.292 61.706-19.346-.752-1.689-1.567-3.363-2.48-5.011-17.022-30.732-55.736-41.846-86.468-24.824s-41.847 55.735-24.824 86.468c.913 1.648 1.9 3.227 2.932 4.76 11.427-14.387 27.473-30.049 49.134-42.047z" fill="#98db7c"/><path d="m305.172 148.45c-2.726-4.922-6.014-9.334-9.731-13.214-17.638 2.279-38.268 7.626-58.786 18.991-21.337 11.818-37.219 27.189-48.61 41.396 1.317 4.938 3.246 9.797 5.835 14.471.913 1.648 1.9 3.227 2.932 4.76 11.426-14.387 27.472-30.049 49.133-42.047 21.66-11.998 43.449-17.292 61.706-19.346-.752-1.689-1.567-3.364-2.479-5.011z" fill="#82d361"/><path d="m353.641 154.41c18.055-28.696 39.31-48.86 59.178-62.932-19.612-17.765-49.085-22.036-73.524-8.5-25.562 14.158-37.533 43.32-31.049 70.417 26.488-2.89 45.395 1.015 45.395 1.015z" fill="#98db7c"/><path d="m412.819 91.479c-5.503-4.985-11.783-8.906-18.509-11.671-16.41 13.006-33.272 30.284-48.121 53.147-1.109 1.707-3.091 2.623-5.104 2.325-5.634-.833-18.155-2.211-34.4-1.142-.456 6.386.035 12.878 1.562 19.258 26.487-2.891 45.395 1.014 45.395 1.014 18.055-28.696 39.31-48.86 59.177-62.931z" fill="#82d361"/><path d="m180.314 239.577c3.723-6.746 9.014-15.235 16.127-24.253-19.531-19.87-50.602-25.192-76.163-11.033-22.189 12.29-34.133 35.886-32.659 59.623 24.172-10.3 54.61-19.161 92.695-24.337z" fill="#98db7c"/><path d="m193.321 219.412c-43.283 4.704-77.326 14.064-103.934 25.187-1.558 6.274-2.173 12.788-1.768 19.316 24.172-10.3 54.61-19.161 92.695-24.337 3.154-5.716 7.448-12.688 13.007-20.166z" fill="#82d361"/><path d="m256 316.227c24.761 0 46.386 5.926 63.353 12.975.16-1.842.259-3.701.259-5.585 0-35.132-28.48-63.612-63.612-63.612s-63.612 28.48-63.612 63.612c0 1.884.098 3.743.259 5.585 16.966-7.05 38.592-12.975 63.353-12.975z" fill="#98db7c"/><path d="m319.353 329.202c.16-1.842.259-3.701.259-5.585 0-4.627-.507-9.135-1.445-13.481-16.784-6.833-37.978-12.489-62.167-12.489s-45.383 5.656-62.167 12.489c-.938 4.347-1.445 8.854-1.445 13.481 0 1.884.098 3.743.259 5.585 16.967-7.049 38.592-12.975 63.353-12.975s46.386 5.925 63.353 12.975z" fill="#82d361"/><path d="m359.124 352.316c29.699-16.354 58.062-23.694 82.26-26.377-8.548-25.043-32.261-43.06-60.198-43.06-29.221 0-53.823 19.71-61.28 46.555 24.57 10.304 39.218 22.882 39.218 22.882z" fill="#98db7c"/><path d="m441.383 325.938c-2.147-6.291-5.253-12.137-9.14-17.366-21.227 3.287-45.165 10.262-70.119 23.539-1.796.955-3.971.798-5.587-.437-4.562-3.487-14.985-10.853-29.917-17.844-2.892 4.825-5.174 10.058-6.714 15.603 24.571 10.305 39.219 22.882 39.219 22.882 29.697-16.354 58.061-23.694 82.258-26.377z" fill="#82d361"/><path d="m152.876 352.316s14.648-12.577 39.219-22.882c-7.457-26.845-32.059-46.555-61.28-46.555-27.937 0-51.65 18.017-60.199 43.06 24.198 2.682 52.562 10.022 82.26 26.377z" fill="#98db7c"/><path d="m79.757 308.572c-3.888 5.23-6.993 11.076-9.14 17.366 24.198 2.683 52.561 10.023 82.26 26.377 0 0 14.648-12.577 39.219-22.882-1.54-5.544-3.822-10.778-6.714-15.603-14.932 6.99-25.356 14.357-29.917 17.844-1.616 1.235-3.792 1.392-5.587.437-24.957-13.277-48.894-20.252-70.121-23.539z" fill="#82d361"/></svg>