<?xml version="1.0" ?><svg height="512px" version="1.1" viewBox="0 0 512 512" width="512px" xmlns="http://www.w3.org/2000/svg" xmlns:xlink="http://www.w3.org/1999/xlink"><title/><desc/><defs/><g fill="none" fill-rule="evenodd" id="SVG" stroke="none" stroke-width="1"><g id="Strawberry"><g transform="translate(2.000000, 0.000000)"><path d="M382.244985,386.297998 C310.778287,457.764696 113.627282,539.040548 42.1461378,467.559404 C-29.3205599,396.092707 51.9408459,198.941701 123.42199,127.475003 C194.888688,55.9938593 287.54836,79.20934 359.029504,150.690484 C430.496202,222.157182 453.711683,314.831301 382.244985,386.297998" fill="#E34361" id="Fill-1"/><path d="M393.87584,192.913188 C411.15382,243.31693 403.2516,295.642052 359.030949,339.862703 C287.549805,411.329401 90.4132459,492.605253 18.9321017,421.124109 C18.5709399,420.762947 18.2820105,420.358446 17.9208487,419.982837 C21.9658609,438.763251 29.6947235,455.102211 42.1475825,467.55507 C113.628727,539.036214 310.765286,457.774809 382.24643,386.293664 C440.292355,328.247739 435.871734,256.217629 393.87584,192.913188" fill="#BC395B" id="Fill-3"/><path d="M221.471641,98.6716273 C191.538551,98.6716273 161.359871,109.954322 133.622644,137.677102 C98.4599309,172.854262 62.0403746,238.759068 42.9999243,301.702347 C21.416895,373.067919 24.8262624,429.813662 52.3612383,457.348638 C116.402449,521.375402 306.026843,442.078717 372.032774,376.087232 C442.791594,305.313965 406.429824,218.51956 348.802847,160.907029 C313.770152,125.859888 267.931496,98.6716273 221.471641,98.6716273 M123.437881,509.225919 C86.6716096,509.225919 54.2392797,500.081302 31.9339267,477.775949 C-3.90777072,441.948698 -9.78748488,376.448394 15.3493767,293.337839 C35.64667,226.248423 74.9699672,155.489602 113.195332,117.24979 C183.92526,46.5198628 284.41492,55.6644797 369.244605,140.479718 C454.059843,225.294956 463.175567,325.799062 392.460086,396.514543 C339.513765,449.460864 217.38329,509.225919 123.437881,509.225919" fill="#454849" id="Fill-5"/><path d="M193.786422,292.78454 C200.171763,286.399199 210.54433,286.399199 216.92967,292.78454 C223.315011,299.16988 223.315011,309.542447 216.92967,315.927788 C210.54433,322.313129 186.953241,335.546097 180.5679,329.14631 C174.168113,322.760969 187.401081,299.16988 193.786422,292.78454" fill="#454849" id="Fill-8"/><path d="M174.374697,183.001464 C180.760038,176.616123 191.132605,176.616123 197.517946,183.001464 C203.903286,189.386804 203.903286,199.759371 197.517946,206.144712 C191.132605,212.530053 167.541516,225.763021 161.156175,219.363234 C154.756388,212.977893 167.989357,189.386804 174.374697,183.001464" fill="#454849" id="Fill-10"/><path d="M110.199134,291.02207 C116.584475,284.636729 126.957042,284.636729 133.342383,291.02207 C139.727723,297.407411 139.727723,307.779978 133.342383,314.165318 C126.957042,320.550659 103.365953,333.783627 96.9806122,327.38384 C90.580825,320.9985 103.813793,297.407411 110.199134,291.02207" fill="#454849" id="Fill-12"/><path d="M313.609796,345.454932 C319.995137,339.069592 319.995137,328.697025 313.609796,322.311684 C307.224455,315.926343 296.851888,315.926343 290.466548,322.311684 C284.081207,328.697025 270.848238,352.288114 277.248026,358.673454 C283.633366,365.073242 307.224455,351.840273 313.609796,345.454932" fill="#454849" id="Fill-14"/><path d="M205.58919,409.630496 C211.97453,403.245155 211.97453,392.872588 205.58919,386.487247 C199.203849,380.101906 188.831282,380.101906 182.445941,386.487247 C176.060601,392.872588 162.827632,416.463677 169.227419,422.849018 C175.61276,429.248805 199.203849,416.015836 205.58919,409.630496" fill="#454849" id="Fill-16"/><path d="M360.690849,232.40262 C360.690849,232.40262 301.18583,259.085254 258.279808,251.428624 C258.279808,251.428624 255.766121,201.906117 299.22111,170.932881 C299.22111,170.932881 232.998481,143.889085 211.458791,59.6661525 C211.458791,59.6661525 256.502892,53.7864383 304.494072,97.8626248 C304.494072,97.8626248 338.77555,53.7864383 325.065848,16.5723261 C325.065848,16.5723261 397.168191,49.4958361 381.681573,128.026859 C381.681573,128.026859 448.72765,131.86962 488.744378,172.160831 C488.744378,172.160831 475.540302,193.194895 435.046841,204.910983 C435.046841,204.910983 464.82102,248.972723 469.371659,291.430905 C469.371659,291.430905 422.160588,293.872359 360.690849,232.40262" fill="#3BB777" id="Fill-18"/><path d="M360.690849,232.40262 C360.690849,232.40262 301.18583,259.085254 258.279808,251.428624 C258.279808,251.428624 255.766121,201.906117 299.22111,170.932881 C299.22111,170.932881 232.998481,143.889085 211.458791,59.6661525 C211.458791,59.6661525 256.502892,53.7864383 304.494072,97.8626248 C304.494072,97.8626248 338.77555,53.7864383 325.065848,16.5723261 C325.065848,16.5723261 397.168191,49.4958361 381.681573,128.026859 C381.681573,128.026859 448.72765,131.86962 488.744378,172.160831 C488.744378,172.160831 475.540302,193.194895 435.046841,204.910983 C435.046841,204.910983 464.82102,248.972723 469.371659,291.430905 C469.371659,291.430905 422.160588,293.872359 360.690849,232.40262" fill="#229857" id="Fill-20"/><path d="M460.183702,254.729643 C449.854475,226.891291 435.046841,204.90376 435.046841,204.90376 C475.540302,193.202118 488.744378,172.168054 488.744378,172.168054 C448.72765,131.876844 381.681573,128.034082 381.681573,128.034082 C397.168191,49.5030593 325.065848,16.5651028 325.065848,16.5651028 C338.77555,53.7792151 304.494072,97.8554016 304.494072,97.8554016 C267.7278,64.0939962 232.868463,59.6733757 218.494223,59.4422322 C217.988597,64.6863016 216.962897,69.410298 215.706054,73.8598114 C240.568433,146.930067 299.22111,170.940104 299.22111,170.940104 C280.050641,184.606467 269.836985,201.870001 264.390665,216.923225 C309.08805,224.262033 370.167734,196.914861 370.167734,196.914861 C407.497418,234.230099 439.698605,248.922161 460.183702,254.729643" fill="#3BB777" id="Fill-22"/><path d="M360.682181,217.953258 C364.438264,217.953258 368.13656,219.426799 370.910283,222.186075 C404.859493,256.135284 433.868009,269.05043 451.304901,273.976677 C442.564785,242.10776 423.307637,213.344834 423.076494,212.983672 C420.490575,209.169803 419.883824,204.330235 421.458489,199.981847 C423.033155,195.633459 426.586987,192.31077 431.0365,191.025034 C449.195716,185.766519 460.882912,178.644408 467.860558,173.06807 C431.831056,145.706451 381.412868,142.484888 380.849456,142.441549 C376.674425,142.210405 372.817217,140.173452 370.260192,136.879657 C367.703166,133.571415 366.70636,129.324152 367.515362,125.2358 C376.631086,78.9493035 350.873026,51.4143276 333.479474,38.5280744 C326.314024,64.6617426 318.729626,100.387868 318.6285,100.850155 C317.559461,105.920867 313.846718,110.023665 308.906025,111.612777 C303.979778,113.201889 298.533458,111.988385 294.734035,108.492339 C270.073907,85.8402707 246.771748,77.8513716 231.472934,75.1209884 C254.616182,135.969529 302.53513,156.671324 304.745441,157.595898 C309.585009,159.618404 312.97993,164.111257 313.557789,169.326433 C314.135647,174.54161 311.881998,179.670107 307.605842,182.718313 C283.379108,199.967401 275.924729,223.991884 273.671079,238.38057 L275.245744,238.38057 C311.390818,238.395017 354.29684,219.441245 354.78802,219.210102 C356.680508,218.35776 358.688568,217.953258 360.682181,217.953258 M468.828471,305.888934 C460.449517,305.888934 414.639754,303.24523 357.417278,249.359889 C338.131238,256.843162 292.408153,272.170868 255.743007,265.65551 C249.126523,264.470899 244.200276,258.880114 243.853561,252.162505 C243.752435,250.125552 242.033305,207.696263 274.292277,173.55925 C250.975671,158.217096 213.212593,124.860192 197.465938,63.2459883 C196.440239,59.2443155 197.177009,54.9826062 199.488445,51.5587923 C201.814327,48.1349784 205.48373,45.8813288 209.586529,45.3468093 C211.435677,45.0434334 250.470045,40.4927947 295.427466,72.0149969 C299.790301,53.0034395 306.175641,26.7686461 311.419711,11.7876545 C312.777679,7.95933939 315.666974,4.86779435 319.394163,3.27868242 C323.1358,1.67512401 327.368616,1.71846342 331.066913,3.42314714 C357.460617,15.4715049 402.475825,53.537959 397.954079,115.397753 C421.646293,119.124943 467.383824,130.176494 498.992705,161.973179 C503.731148,166.740515 504.554597,174.151555 500.986318,179.829018 C499.570564,182.097115 487.811136,199.591792 456.563416,212.651403 C466.343678,230.261653 480.54456,260.108064 483.73723,289.882243 C484.156178,293.840577 482.942675,297.770017 480.371202,300.78933 C477.785284,303.823089 474.086987,305.643344 470.128654,305.860041 C469.955296,305.860041 469.521902,305.888934 468.828471,305.888934" fill="#454849" id="Fill-24"/><path d="M358.952938,165.20341 C355.818054,165.20341 352.668723,164.192157 350.010572,162.097419 C343.755249,157.156725 342.671764,148.069894 347.612457,141.814572 C353.362153,134.53355 404.921612,70.5356781 446.45522,66.4762195 C454.516351,65.7250029 461.479551,71.5035918 462.245214,79.434705 C463.025323,87.3802647 457.217842,94.459036 449.272282,95.224699 C427.068054,97.4061163 389.04494,135.934858 370.307865,159.699304 C367.447464,163.310922 363.214647,165.20341 358.952938,165.20341" fill="#454849" id="Fill-27"/><path d="M95.2773731,249.949305 C94.0783159,249.949305 92.8503658,249.747054 91.6513086,249.328107 C86.0171844,247.320047 83.0701041,241.136957 85.0637173,235.488386 C85.6704691,233.769256 100.333638,193.059098 126.265056,170.565941 C130.801248,166.6365 137.634429,167.142127 141.549423,171.649426 C145.478864,176.171172 144.987684,183.004353 140.465938,186.933793 C118.79623,205.728654 105.621047,242.379354 105.491029,242.740515 C103.916363,247.190029 99.741333,249.949305 95.2773731,249.949305" fill="#FEFEFE" id="Fill-29"/><path d="M165.92929,143.19421 C171.895683,148.250475 172.646899,157.192841 167.576188,163.159234 C162.519922,169.140074 153.577556,169.876844 147.611163,164.820579 C141.64477,159.764313 140.893554,150.821947 145.964265,144.841108 C151.020531,138.874715 159.962897,138.137945 165.92929,143.19421" fill="#FEFEFE" id="Fill-31"/></g></g></g></svg>