<svg xmlns="http://www.w3.org/2000/svg" viewBox="0 0 128 128"><title>Watermelon</title><g id="Watermelon"><g id="Watermelon-2" data-name="Watermelon"><path d="M76.66,14.35H73.91c0-4.58-2-8.6-5-9.78L70,2C74,3.62,76.66,8.57,76.66,14.35Z" fill="#9d8572"/><path d="M23.14,65.22c0,28.63,23,55.3,51.43,55.3S126,93.86,126,65.22s-23-56-51.43-56S23.14,36.58,23.14,65.22Z" fill="#489b5f"/><path d="M114.39,98.27c.08-.34.05.29,0,0Z" fill="#227e65"/><path d="M114.58,31.12c.75,1,1.4,1.92,1.44,2a17.8,17.8,0,0,0,1.23,2.48l1.45,2.46A10,10,0,0,1,119.8,41a14.36,14.36,0,0,0,.81,4.07l1.17,2.67a9.12,9.12,0,0,1,.72,3.53c-.08.78-.25,4.16.18,5.33,0,0,.44,1.17.77,2.32a9.82,9.82,0,0,1,.18,4c-.22,1-1,5-.68,6a16.58,16.58,0,0,1,0,5.76L122,77.13a8,8,0,0,0-.62,3.51,12.43,12.43,0,0,1-.7,4.61l-1.34,2.64a7.83,7.83,0,0,0-1,2.82A10,10,0,0,1,117.11,94l-1.45,2.26c-.71,1-1.29,1.9-1.28,1.92a.59.59,0,0,1,0,.13v.11a.12.12,0,0,0,.05.14l.07.07.09.1c.1.1-.47,1-1.27,1.94l-6.2,6.63c-.91.86-1.52,1.26-1.35.89s.46-1,.24-.93-.31-.79.61-1.65l2.53-2.53c.86-.91,1.35-1.86,1.08-2.11a3,3,0,0,1,.18-3l2.85-3.53c.76-1,1.1-2.32.75-2.94s-1-3.46-.3-4.49l2.71-4.12a4.5,4.5,0,0,0,.34-3.76c-.47-1-1.55-4.91-.92-6l2.11-3.83a5.19,5.19,0,0,0,0-4.09l-1.78-3.41a4.73,4.73,0,0,1,0-4s.73-1.37,1.25-2.51a5,5,0,0,0-.17-4.06l-2.51-4.13a3.84,3.84,0,0,1-.31-3.56c.51-.9,1-3.81.25-4.84l-2.86-3.83c-.77-1-1.07-2.22-.66-2.74a3.24,3.24,0,0,0-.29-3.29l-2.7-3c-.88-.89-1.33-1.76-1-1.93s1-.38,1-.39l1.52,1.64Z" fill="#227e65"/><path d="M83.17,15.12c1.06-.36,1-1.09-.13-1.62l-2.61-1.11c-1.17-.45-1.11-1,.12-1.19L84,10.84a16.09,16.09,0,0,1,4.38.89l6.21,2.9c1.1.59,1.51,1.11.91,1.14s-1.69,1-.64,1.68l3.37,2.39c1,.76,1.24,1.65.54,2s-2.18,2.27-1.23,3.08l4.27,3.84a1.94,1.94,0,0,1,.17,2.87c-.81.72-2.71,3.81-1.84,4.71l4.72,5.18a2.84,2.84,0,0,1,0,3.5l-2.75,3.31a2.88,2.88,0,0,0,0,3.51l4.43,5.66a3.32,3.32,0,0,1,0,3.68l-3.9,5.17a3.11,3.11,0,0,0,0,3.61l3.45,4.53a3.16,3.16,0,0,1,0,3.62l-4.65,5.63a2.63,2.63,0,0,0,.06,3.4l2.26,2.46a2.55,2.55,0,0,1,0,3.36l-4.61,4.68a1.83,1.83,0,0,0,0,2.85c.91.69,2.2,2.85,1.25,3.68L96.5,107.4c-1,.76-1.16,1.65-.38,2s1.72,1.45.68,2.15l-3,1.88c-1.08.64-1.4,1.18-.73,1.21s1.26.31.14.87l-5.5,2.8a8.19,8.19,0,0,1-4,.68,23.73,23.73,0,0,0-2.89-.26c-.71,0-1.88-.52-.76-.86s3.52-1.8,2.53-2-3-1.7-1.91-2.25l3.41-1.84c1.08-.62,1.05-1.57-.07-2.12l-2.7-1.42a1.28,1.28,0,0,1-.1-2.37l4.79-3.43a1.58,1.58,0,0,0,0-2.69L81.9,96.6a1.75,1.75,0,0,1-.07-2.85l6-5.34a2.08,2.08,0,0,0,0-3.09L82.4,80.19a2.21,2.21,0,0,1,0-3.17L89,70.13a2.52,2.52,0,0,0,0-3.35l-6.52-6.93a2.37,2.37,0,0,1,0-3.27l5.92-6a2.28,2.28,0,0,0,0-3.22l-6.4-6.09a1.94,1.94,0,0,1,.06-3l4.69-3.86a1.79,1.79,0,0,0,0-2.88l-5.31-4.2a1.46,1.46,0,0,1,.08-2.57l3.27-2a1.28,1.28,0,0,0,.05-2.38l-4-2.44C79.85,17.33,82.11,15.48,83.17,15.12Z" fill="#87c16d"/><path d="M73.74,13.35c1.1-.38,1-1.13-.14-1.67l-2.7-1.15c-1.21-.46-1.15-1,.12-1.23l3.63-.38a16.66,16.66,0,0,1,4.54.92l6.44,3c1.14.61,1.56,1.14.94,1.18s-1.75,1-.67,1.74l3.49,2.48c1,.79,1.28,1.71.55,2.05s-2.26,2.35-1.27,3.18l4.42,4a2,2,0,0,1,.18,3c-.84.74-2.81,3.95-1.91,4.88l4.89,5.36a2.94,2.94,0,0,1,0,3.62l-2.85,3.42a3,3,0,0,0,0,3.64L98,57.22A3.44,3.44,0,0,1,98,61l-4,5.36a3.23,3.23,0,0,0,0,3.73l3.57,4.69a3.28,3.28,0,0,1,0,3.75l-4.82,5.83a2.73,2.73,0,0,0,.06,3.53l2.34,2.55a2.64,2.64,0,0,1,0,3.48l-4.77,4.85a1.9,1.9,0,0,0,0,2.95c.94.72,2.27,3,1.3,3.81l-4.08,3.36c-1,.79-1.2,1.71-.4,2s1.78,1.5.71,2.23l-3.06,1.94c-1.11.66-1.45,1.22-.75,1.25s1.31.32.15.9l-5.69,2.9a8.48,8.48,0,0,1-4.17.71,24.58,24.58,0,0,0-3-.27c-.74,0-1.95-.54-.79-.89s3.65-1.86,2.62-2.11-3.13-1.76-2-2.33l3.53-1.9c1.12-.64,1.09-1.63-.07-2.2l-2.8-1.47a1.33,1.33,0,0,1-.1-2.46l5-3.56a1.63,1.63,0,0,0,0-2.79l-4.27-3.18a1.81,1.81,0,0,1-.07-2.95l6.24-5.53a2.16,2.16,0,0,0,0-3.2l-5.65-5.3a2.29,2.29,0,0,1-.05-3.29l6.91-7.14a2.61,2.61,0,0,0,0-3.47l-6.75-7.18a2.46,2.46,0,0,1,0-3.39l6.13-6.19a2.36,2.36,0,0,0,0-3.33l-6.63-6.31a2,2,0,0,1,.06-3.1l4.86-4a1.85,1.85,0,0,0,0-3L72,26a1.51,1.51,0,0,1,.08-2.66l3.39-2.09a1.33,1.33,0,0,0,.06-2.46l-4.1-2.53C70.3,15.64,72.64,13.72,73.74,13.35Z" fill="#85bc65" opacity="0.25"/><path d="M53.4,17.7c1-.7,1.32-1.38.63-1.51s-1.36-.7-.27-1.3l6.21-3A16,16,0,0,1,64.34,11l3.35.3c1.23.19,1.29.72.13,1.18l-2.66,1.15C64,14.15,64,14.88,65,15.23s3.26,2.17,2.18,2.8l-4,2.48a1.3,1.3,0,0,0,.06,2.39l3.15,1.94a1.48,1.48,0,0,1,.1,2.6l-5.33,4.25a1.8,1.8,0,0,0,0,2.89l4.54,3.78a2,2,0,0,1,.06,3l-6.35,6.11a2.32,2.32,0,0,0,0,3.24l5.77,5.9a2.39,2.39,0,0,1,0,3.28l-6.38,6.85a2.54,2.54,0,0,0,0,3.36L65.39,77a2.24,2.24,0,0,1-.05,3.19l-5.31,5a2.12,2.12,0,0,0,0,3.12l6,5.39A1.77,1.77,0,0,1,66,96.54l-4,3a1.6,1.6,0,0,0,0,2.72l4.8,3.5a1.27,1.27,0,0,1-.11,2.36l-2.58,1.36c-1.12.55-1.16,1.51-.08,2.14l3.46,1.87c1.11.56,1.14,1.32.05,1.67s-2.72,1.36-1.57,1.82c0,0,1.08.44,2.23.8s1.07.81-.16,1l-1.65.13a10.65,10.65,0,0,1-4.36-.61l-6.76-3.14c-1.14-.51-1.63-.87-1.08-.8s1.42-.53.35-1.17l-2.93-1.91c-1-.71-1.35-1.46-.71-1.65s1.89-1.69.9-2.46l-3.89-3.24c-.93-.83-1.09-2-.35-2.5s2.38-3.12,1.49-4l-4.52-4.66a2.61,2.61,0,0,1,0-3.39L46.58,87a2.7,2.7,0,0,0,0-3.44L42.1,78a3.25,3.25,0,0,1,0-3.65l3.31-4.42a3.16,3.16,0,0,0,0-3.62l-3.76-5.07a3.4,3.4,0,0,1,0-3.7L45.93,52a3,3,0,0,0,0-3.54l-2.62-3.21a2.9,2.9,0,0,1,.06-3.52L48,36.55a2.26,2.26,0,0,0-.12-3.2s-.83-.77-1.62-1.48a2,2,0,0,1,.2-2.88l4.2-3.83c.95-.82,1.07-1.86.26-2.31s-1.82-2-.83-2.73Z" fill="#227e65"/><path d="M51.57,113.46l-3.46-1.87c-1.08-.63-1-1.59.08-2.14l2.58-1.36a1.27,1.27,0,0,0,.11-2.36l-4.8-3.5a1.6,1.6,0,0,1,0-2.72l4-3a1.77,1.77,0,0,0,.08-2.86l-6-5.38a2.12,2.12,0,0,1,0-3.12l5.31-5A2.24,2.24,0,0,0,49.52,77L43,70.1a2.54,2.54,0,0,1,0-3.36l6.38-6.85a2.39,2.39,0,0,0,0-3.28l-5.77-5.9a2.32,2.32,0,0,1,0-3.24l6.35-6.11a2,2,0,0,0-.06-3l-4.54-3.78a1.8,1.8,0,0,1,0-2.89l5.33-4.25a1.48,1.48,0,0,0-.1-2.6L47.35,22.9a1.3,1.3,0,0,1-.06-2.39l4-2.48c.67-.39.07-1.22-.72-1.89A56.64,56.64,0,0,0,32.48,34.05a2.26,2.26,0,0,1-.39,2.49l-2.8,3.12q-1.2,2.42-2.19,4.94a2.5,2.5,0,0,0,.32.6L30,48.42a3,3,0,0,1,0,3.54l-4.3,5.57a3.4,3.4,0,0,0,0,3.7L29.5,66.3a3.16,3.16,0,0,1,0,3.62l-3.31,4.42a3.25,3.25,0,0,0,0,3.65l4.52,5.57a2.7,2.7,0,0,1,0,3.44l-2.06,2.28a56.45,56.45,0,0,0,23.61,25.47C52.58,114.36,52.37,113.87,51.57,113.46Z" fill="#85bc65" opacity="0.25"/><path d="M105.9,107.15l3.89-3.24c.93-.83,1.09-2,.35-2.5s-2.38-3.12-1.49-4l4.52-4.66a2.61,2.61,0,0,0,0-3.39L111.07,87a2.7,2.7,0,0,1,0-3.44L115.55,78a3.25,3.25,0,0,0,0-3.65l-3.31-4.42a3.16,3.16,0,0,1,0-3.62L116,61.23a3.4,3.4,0,0,0,0-3.7L111.72,52a3,3,0,0,1,0-3.54l2.62-3.21a2.9,2.9,0,0,0-.06-3.52l-4.62-5.14a2.26,2.26,0,0,1,.12-3.2s.83-.77,1.62-1.48a2,2,0,0,0-.2-2.88L107,25.15c-.95-.82-1.07-1.86-.26-2.31a2.13,2.13,0,0,0,.34-.25,51,51,0,0,0-18-10.91c-.15.24.07.52.75.79l2.66,1.15c1.13.54,1.2,1.27.17,1.62S89.4,17.41,90.48,18l4,2.48a1.3,1.3,0,0,1-.06,2.39l-3.15,1.94a1.48,1.48,0,0,0-.1,2.6l5.33,4.25a1.8,1.8,0,0,1,0,2.89L92,38.35a2,2,0,0,0-.06,3l6.35,6.11a2.32,2.32,0,0,1,0,3.24l-5.77,5.9a2.39,2.39,0,0,0,0,3.28l6.38,6.85a2.54,2.54,0,0,1,0,3.36L92.26,77a2.24,2.24,0,0,0,.05,3.19l5.31,5a2.12,2.12,0,0,1,0,3.12l-6,5.38a1.77,1.77,0,0,0,.08,2.86l4,3a1.6,1.6,0,0,1,0,2.72l-4.8,3.5a1.27,1.27,0,0,0,.11,2.36l2.58,1.36c1.12.55,1.16,1.51.08,2.14l-3.46,1.87c-1.11.56-1.14,1.32-.05,1.67s2.72,1.36,1.57,1.82c0,0-1.08.44-2.23.8-.5.16-.72.33-.76.49a50.58,50.58,0,0,0,17-9.63A1.07,1.07,0,0,1,105.9,107.15Z" fill="#227e65" opacity="0.25"/><path d="M34.38,97.82a48.7,48.7,0,0,1-3.8-6.07,4.32,4.32,0,0,1-.12-2.12,57.56,57.56,0,0,1-3.09-6.31,2,2,0,0,1-.15-.77,16.6,16.6,0,0,1,.27-2.88,2,2,0,0,0-.13-1.15,43.64,43.64,0,0,1-2.06-5.75,2,2,0,0,1-.06-.78,30,30,0,0,1,.91-4.47,2,2,0,0,0,0-1.14,34.79,34.79,0,0,1-1.23-5,2,2,0,0,1,0-.78,44.09,44.09,0,0,1,1.73-5.53A2,2,0,0,0,26.74,54a22.13,22.13,0,0,1-.51-3.58,2,2,0,0,1,.12-.77,49.74,49.74,0,0,1,2.52-5.84,2.05,2.05,0,0,0,.19-1.15,7.36,7.36,0,0,1,0-2.23A56.32,56.32,0,0,1,32.7,34c0-.12,0-.24,0-.34A58.69,58.69,0,0,1,40.59,24a6.77,6.77,0,0,1,1.33.62c-1.69,1.68-3.24,3.36-4.74,5.15a1.94,1.94,0,0,0-.06,2.4l0,0a2,2,0,0,1,0,2.37c-1.41,1.79-2.69,3.57-3.9,5.4a1.91,1.91,0,0,0-.14,1.87c.37.78.8,1.62,1.31,2.55a2,2,0,0,1-.08,2c-1.37,2.1-2.57,4.14-3.64,6.16a1.89,1.89,0,0,0-.07,1.66c.63,1.45,1.37,3,2.27,4.71a2,2,0,0,1,0,1.9,71.78,71.78,0,0,0-3.19,6.44c1,2.17,2.17,4.4,3.59,6.81A2,2,0,0,1,33.28,76c-.74,1.42-1.36,2.72-1.88,3.92a1.89,1.89,0,0,0,.11,1.72c1.16,2,2.4,4,3.83,6a1.94,1.94,0,0,1,.1,2.1c-.33.56-.63,1.08-.9,1.55a1.91,1.91,0,0,0,.12,2,73.08,73.08,0,0,0,4.9,6.09c-.76.76-1.3,1.31-1.66,1.7a59.41,59.41,0,0,0,5.67,5.74,1.67,1.67,0,0,1-1.33,0,4.74,4.74,0,0,1,.87,1.53,57,57,0,0,1-9.05-9.91C34.68,97.84,34.38,98,34.38,97.82Z" fill="#87c16d"/><path d="M126,65.21c0,28.64-23,55.32-51.42,55.32a47.71,47.71,0,0,1-29.7-10.7A46.46,46.46,0,0,0,67.78,116c28.39,0,49.15-26.67,49.15-55.32,0-17.65,1.7-28.93-19.86-45.37C114.19,24.89,126,44.73,126,65.21Z" fill="#1d705e" opacity="0.5"/><path d="M95.17,85.63c-4.66,21.9-23.28,38.27-45.56,38.27S8.72,107.52,4.06,85.63H2C6.7,108.69,26.23,126,49.61,126s42.92-17.31,47.62-40.37Z" fill="#227e65"/><path d="M49.61,123.9c22.28,0,40.89-16.37,45.56-38.27H92.29C87.68,105.88,70.33,121,49.61,121S11.54,105.88,6.93,85.63H4.06C8.72,107.52,27.34,123.9,49.61,123.9Z" fill="#e5ffd4"/><path d="M49.61,121c20.72,0,38.07-15.07,42.68-35.33H6.93C11.54,105.88,28.89,121,49.61,121Z" fill="#e04e72"/><path d="M23.57,100.28a3.66,3.66,0,0,1-1.9-.79c-.93-.8-1-2.35.17-3.92a3,3,0,0,0-2.18,2,3.1,3.1,0,0,0,.87,3.21,3.82,3.82,0,0,0,3.05.86,4.81,4.81,0,0,0,2.58-1.26A18.39,18.39,0,0,1,23.57,100.28Z" fill="#ff8ca8"/><path d="M79.47,97.82a4,4,0,0,0-1.89-2.25,8.63,8.63,0,0,1,.59,2.52,2.45,2.45,0,0,1-.56,1.84,2.4,2.4,0,0,1-1.77.71,14.65,14.65,0,0,1-2.59-.29A4.65,4.65,0,0,0,75.69,102a3.21,3.21,0,0,0,3.18-.89A3.28,3.28,0,0,0,79.47,97.82Z" fill="#ff8ca8"/><path d="M51.6,109.59a2.27,2.27,0,0,1-1.91.78,2.83,2.83,0,0,1-1.86-1.12,9.11,9.11,0,0,1-1.27-2.53,4.53,4.53,0,0,0,.13,3.21,3.59,3.59,0,0,0,2.83,2.14,3.25,3.25,0,0,0,3.15-1.71,4.2,4.2,0,0,0,.29-3.21A7.61,7.61,0,0,1,51.6,109.59Z" fill="#ff8ca8"/><path d="M73.78,92.57c-2-2-5.53-1.7-5.53-1.7s-.31,3.57,1.68,5.58,4.47,2.77,5.53,1.7S75.77,94.58,73.78,92.57Z" fill="#4b4143"/><path d="M49.8,97.06s-2.72,2.3-2.72,5.14,1.22,5.14,2.72,5.14,2.72-2.3,2.72-5.14S49.8,97.06,49.8,97.06Z" fill="#4b4143"/><path d="M25.45,92.57c-2,2-2.74,4.51-1.68,5.58s3.54.31,5.53-1.7S31,90.87,31,90.87,27.44,90.56,25.45,92.57Z" fill="#4b4143"/><ellipse cx="39.42" cy="90.64" rx="0.97" ry="1.14" fill="#ff8ca8"/><ellipse cx="18.45" cy="88.8" rx="0.97" ry="1.14" fill="#ff8ca8"/><ellipse cx="26.45" cy="106.96" rx="0.97" ry="1.14" fill="#ff8ca8"/><ellipse cx="55.26" cy="91.09" rx="0.97" ry="1.14" fill="#ff8ca8"/><ellipse cx="62.52" cy="100.43" rx="0.97" ry="1.14" fill="#ff8ca8"/><ellipse cx="61.24" cy="112.86" rx="0.97" ry="1.14" fill="#ff8ca8"/><ellipse cx="39.42" cy="113.21" rx="0.97" ry="1.14" fill="#ff8ca8"/><ellipse cx="81.29" cy="90.42" rx="1.14" ry="0.97" transform="translate(-12.05 168.35) rotate(-87.9)" fill="#ff8ca8"/><ellipse cx="76.37" cy="105.81" rx="0.97" ry="1.14" fill="#ff8ca8"/><ellipse cx="35.88" cy="100.91" rx="0.97" ry="1.14" fill="#ff8ca8"/></g></g></svg>